<svg xmlns="http://www.w3.org/2000/svg" width="16" height="16" viewBox="0 0 16 16"><path d="M0,0H16V16H0Z" fill="none"/><path d="M11.958,2.328h2.656a.664.664,0,0,1,.664.664V13.614a.664.664,0,0,1-.664.664H2.664A.664.664,0,0,1,2,13.614V2.992a.664.664,0,0,1,.664-.664H5.319V1H6.647V2.328H10.63V1h1.328ZM13.95,7.639H3.328V12.95H13.95ZM10.63,3.656H6.647V4.983H5.319V3.656H3.328V6.311H13.95V3.656H11.958V4.983H10.63ZM4.656,8.967H5.983v1.328H4.656Zm3.319,0H9.3v1.328H7.975Zm3.319,0h1.328v1.328H11.294Z" transform="translate(-0.639 -0.319)" fill="#8b95a1"/></svg>