<svg xmlns="http://www.w3.org/2000/svg" xmlns:xlink="http://www.w3.org/1999/xlink" width="52" height="52" viewBox="0 0 52 52"><defs><clipPath id="a"><rect width="36" height="36" transform="translate(-15100 -23467)" fill="#fff" stroke="#707070" stroke-width="1"/></clipPath><clipPath id="b"><rect width="35.795" height="26.525" fill="none" stroke="#36435e" stroke-width="1"/></clipPath></defs><g transform="translate(-868 -698)"><rect width="52" height="52" rx="5" transform="translate(868 698)" fill="#f48b90"/><g transform="translate(15976 24173)" clip-path="url(#a)"><g transform="translate(4.795 0.397)"><rect width="4.89" height="15.634" transform="translate(-15085.406 -23452.186)" fill="#f48b90" stroke="#fff" stroke-width="1"/><g transform="translate(-15104.795 -23462.398)"><g clip-path="url(#b)"><path d="M15.7,12.248l7.874-6.232L31.445,9.94l7.874,3.924" transform="translate(-9.611 -3.683)" fill="none" stroke="#fff" stroke-width="1"/></g></g><path d="M35.047,3.4A1.654,1.654,0,1,1,33.393,1.75,1.654,1.654,0,0,1,35.047,3.4Z" transform="translate(-15124.228 -23463.471)" fill="#f48b90" stroke="#fff" stroke-width="1"/><path d="M55.354,13.524A1.654,1.654,0,1,1,53.7,11.87,1.654,1.654,0,0,1,55.354,13.524Z" transform="translate(-15136.661 -23469.666)" fill="#f48b90" stroke="#fff" stroke-width="1"/><rect width="4.89" height="13.326" transform="translate(-15101.153 -23449.879)" fill="#f48b90" stroke="#fff" stroke-width="1"/><path d="M14.739,19.478a1.654,1.654,0,1,1-1.654-1.654A1.654,1.654,0,0,1,14.739,19.478Z" transform="translate(-15111.794 -23473.311)" fill="#f48b90" stroke="#fff" stroke-width="1"/><rect width="4.89" height="19.558" transform="translate(-15093.279 -23456.109)" fill="#f48b90" stroke="#fff" stroke-width="1"/><rect width="4.89" height="11.71" transform="translate(-15077.532 -23448.262)" fill="#f48b90" stroke="#fff" stroke-width="1"/><path d="M75.661,23.646a1.654,1.654,0,1,1-1.654-1.654A1.654,1.654,0,0,1,75.661,23.646Z" transform="translate(-15149.094 -23475.863)" fill="#f48b90" stroke="#fff" stroke-width="1"/><path d="M0,0H35.795" transform="translate(-15104.795 -23436.553)" fill="none" stroke="#fff" stroke-width="1"/></g></g></g></svg>