<svg xmlns="http://www.w3.org/2000/svg" xmlns:xlink="http://www.w3.org/1999/xlink" width="52" height="52" viewBox="0 0 52 52"><defs><clipPath id="a"><rect width="36" height="36" transform="translate(395.178 743.178)" fill="#fff" stroke="#707070" stroke-width="1"/></clipPath></defs><g transform="translate(-330 -766)"><rect width="52" height="52" rx="5" transform="translate(330 766)" fill="#8798de"/><g transform="translate(-57.178 30.822)" clip-path="url(#a)"><path d="M31.88,7.8c0,3.924-3.613,7.408-6.335,7.408S19.21,11.725,19.21,7.8,20.17,1,25.545,1,31.88,3.878,31.88,7.8" transform="translate(387.823 743.794)" fill="#97bafd"/><path d="M31.88,7.573c0,3.792-3.613,7.159-6.335,7.159S19.21,11.365,19.21,7.573,20.17,1,25.545,1,31.88,3.781,31.88,7.573Z" transform="translate(387.823 744.272)" fill="#8798de" stroke="#fff" stroke-linecap="round" stroke-linejoin="round" stroke-width="1"/><path d="M20.962,26.459c.155.922-.2,1.751-.795,1.85s-1.2-.568-1.355-1.49.2-1.751.795-1.85,1.2.568,1.355,1.49" transform="translate(388.115 727.694)" fill="#fff" stroke="#36435e" stroke-width="1"/><path d="M21.827,26.459a1.421,1.421,0,0,1-1.11,1.85,1.853,1.853,0,0,1-1.891-1.49,1.421,1.421,0,0,1,1.11-1.85A1.853,1.853,0,0,1,21.827,26.459Z" transform="translate(387.235 727.694)" fill="#8798de" stroke="#fff" stroke-linecap="round" stroke-linejoin="round" stroke-width="1"/><path d="M51.532,26.459c-.154.922.2,1.751.795,1.85s1.2-.568,1.355-1.49-.2-1.751-.795-1.85-1.2.568-1.355,1.49" transform="translate(366.128 727.694)" fill="#fff" stroke="#707070" stroke-width="1"/><path d="M51.546,26.459a1.421,1.421,0,0,0,1.1,1.85,1.843,1.843,0,0,0,1.878-1.49,1.421,1.421,0,0,0-1.1-1.85A1.843,1.843,0,0,0,51.546,26.459Z" transform="translate(366.128 727.694)" fill="#8798de" stroke="#fff" stroke-linecap="round" stroke-linejoin="round" stroke-width="1"/><path d="M25.592,68.849V61.18a5.606,5.606,0,0,0-3.4-5.416l-4.9-1.158H9.328l-.587.138-.119.028-4.222,1A5.6,5.6,0,0,0,1,61.183v7.665Z" transform="translate(400.06 707.773)" fill="#8798de"/><path d="M25.592,68.849V61.18a5.606,5.606,0,0,0-3.4-5.416l-4.9-1.158H9.328L4.4,55.768A5.6,5.6,0,0,0,1,61.183v7.665Z" transform="translate(400.06 707.773)" fill="none" stroke="#fff" stroke-linecap="round" stroke-linejoin="round" stroke-width="1"/><path d="M34.347,41.733l-.4.319a5.78,5.78,0,0,1-7.152,0l-.406-.32a1.682,1.682,0,0,0,1.248-1.625v-4.66H33.1v4.66a1.686,1.686,0,0,0,1.248,1.625" transform="translate(383.003 720.647)" fill="#fff"/><path d="M34.347,41.733l-.4.319a5.78,5.78,0,0,1-7.152,0l-.406-.32a1.682,1.682,0,0,0,1.248-1.625v-4.66H33.1v4.66a1.686,1.686,0,0,0,1.248,1.625Z" transform="translate(383.003 720.647)" fill="#8798de" stroke="#fff" stroke-linecap="round" stroke-linejoin="round" stroke-width="1"/><path d="M32.895,17.149c0,4.026-3.06,7.6-5.367,7.6s-5.366-3.578-5.366-7.6c0-.14,0-.28,0-.418a5.758,5.758,0,0,0,3.557-2.648,8.411,8.411,0,0,0,.6-1.021,5.935,5.935,0,0,0,1.856,2.017,4.919,4.919,0,0,0,4.681.744c.028.427.037.869.037,1.326" transform="translate(385.839 735.688)" fill="#8798de"/><path d="M32.895,17.149c0,4.026-3.06,7.6-5.367,7.6s-5.366-3.578-5.366-7.6c0-.14,0-.28,0-.418a5.758,5.758,0,0,0,3.557-2.648,8.411,8.411,0,0,0,.6-1.021,5.935,5.935,0,0,0,1.856,2.017,4.919,4.919,0,0,0,4.681.744C32.886,16.25,32.895,16.692,32.895,17.149Z" transform="translate(385.839 735.688)" fill="none" stroke="#fff" stroke-linecap="round" stroke-linejoin="round" stroke-width="1"/><line y1="6.145" transform="translate(405.767 770.474)" fill="#fff" stroke="#707070" stroke-width="1"/><line y1="6.145" transform="translate(405.767 770.474)" fill="none" stroke="#fff" stroke-linecap="round" stroke-linejoin="round" stroke-width="1"/><line y1="6.145" transform="translate(420.972 770.474)" fill="#fff" stroke="#707070" stroke-width="1"/><line y1="6.145" transform="translate(420.972 770.474)" fill="none" stroke="#fff" stroke-linecap="round" stroke-linejoin="round" stroke-width="1"/></g></g></svg>