<svg xmlns="http://www.w3.org/2000/svg" xmlns:xlink="http://www.w3.org/1999/xlink" width="52" height="52" viewBox="0 0 52 52"><defs><clipPath id="a"><rect width="36" height="36" transform="translate(1132.393 747.393)" fill="#9c95d1" stroke="#707070" stroke-width="1"/></clipPath></defs><g transform="translate(-330 -842)"><path d="M5,0H47a5,5,0,0,1,5,5V47a5,5,0,0,1-5,5H5a5,5,0,0,1-5-5V5A5,5,0,0,1,5,0Z" transform="translate(330 842)" fill="#9c95d1"/><g transform="translate(-794.393 102.607)" clip-path="url(#a)"><g transform="translate(1133.572 750.689)"><path d="M13.47,35.177,9.642,32.906,10.55,36.8,6.073,39.4v4.867L12.3,47.7V51.66h3.244L17.039,48.8h4.35l1.363,3.05H25.6l.26-4.543a8,8,0,0,0,3.114-8.89c-1.622-5.9-10.382-7.138-15.509-3.244" transform="translate(-4.726 -23.204)" fill="#9c95d1" stroke="#fff" stroke-width="1"/><path d="M13.47,35.177,9.642,32.906,10.55,36.8,6.073,39.4v4.867L12.3,47.7V51.66h3.244L17.039,48.8h4.35l1.363,3.05H25.6l.26-4.543a8,8,0,0,0,3.114-8.89C27.357,32.517,18.6,31.284,13.47,35.177Z" transform="translate(-4.726 -23.204)" fill="#9c95d1" stroke="#fff" stroke-linecap="round" stroke-linejoin="round" stroke-width="1"/><path d="M4.238,56.15a1.244,1.244,0,1,1-2.488,0V52.705a1.244,1.244,0,1,1,2.488,0Z" transform="translate(-1.75 -35.98)" fill="#9c95d1" stroke="#36435e" stroke-width="1"/><path d="M4.238,56.15a1.244,1.244,0,1,1-2.488,0V52.705a1.244,1.244,0,1,1,2.488,0Z" transform="translate(-1.75 -35.98)" fill="#9c95d1" stroke="#fff" stroke-linecap="round" stroke-linejoin="round" stroke-width="1"/><line y2="0.903" transform="translate(7.347 16.383)" fill="none" stroke="#fff" stroke-linecap="round" stroke-linejoin="round" stroke-width="1"/><path d="M47.086,28.566a3.224,3.224,0,1,0-5.55,0,6.68,6.68,0,0,1,5.55,0" transform="translate(-28.837 -16.869)" fill="#9c95d1" stroke="#fff" stroke-width="1"/><path d="M47.086,28.566a3.224,3.224,0,1,0-5.55,0,6.68,6.68,0,0,1,5.55,0Z" transform="translate(-28.837 -16.869)" fill="#9c95d1" stroke="#fff" stroke-linecap="round" stroke-linejoin="round" stroke-width="1"/><path d="M61.418,4.459A2.709,2.709,0,1,1,58.709,1.75a2.709,2.709,0,0,1,2.709,2.709" transform="translate(-39.109 -1.75)" fill="#9c95d1" stroke="#36435e" stroke-width="1"/><path d="M61.418,4.459A2.709,2.709,0,1,1,58.709,1.75,2.709,2.709,0,0,1,61.418,4.459Z" transform="translate(-39.109 -1.75)" fill="#9c95d1" stroke="#fff" stroke-linecap="round" stroke-linejoin="round" stroke-width="1"/><path d="M80.855,52.476s3.611-.645,4.514-2.58-4.385-1.29-1.806,2.063,6.707-.644,6.707-.644" transform="translate(-56.224 -34.159)" fill="none" stroke="#36435e" stroke-width="1"/><path d="M80.855,52.476s3.611-.645,4.514-2.58-4.385-1.29-1.806,2.063,6.707-.644,6.707-.644" transform="translate(-56.224 -34.159)" fill="none" stroke="#fff" stroke-linecap="round" stroke-linejoin="round" stroke-width="1"/></g></g></g></svg>