<svg xmlns="http://www.w3.org/2000/svg" xmlns:xlink="http://www.w3.org/1999/xlink" width="52" height="52" viewBox="0 0 52 52"><defs><clipPath id="a"><rect width="36" height="36" transform="translate(1657.376 747.375)" fill="#fff" stroke="#707070" stroke-width="1"/></clipPath><clipPath id="b"><rect width="33.638" height="23.348" fill="none" stroke="#36435e" stroke-width="1"/></clipPath><clipPath id="c"><rect width="33.638" height="23.348" fill="none" stroke="#fff" stroke-width="1"/></clipPath></defs><g transform="translate(-1404 -935)"><rect width="52" height="52" rx="5" transform="translate(1404 935)" fill="#2a4986"/><g transform="translate(-245.375 195.625)" clip-path="url(#a)"><g transform="translate(1658.748 753.767)"><g transform="translate(0 0)"><g clip-path="url(#b)"><path d="M11.448,22.378H.725l1.581-6H9.868Z" transform="translate(0.009 0.211)" fill="none" stroke="#fff" stroke-linejoin="bevel" stroke-width="1"/></g></g><path d="M16.741,16.453H6.018l1.581-6h7.562Z" transform="translate(0.077 0.135)" fill="none" stroke="#fff" stroke-linejoin="bevel" stroke-width="1"/><path d="M27.328,16.453H16.6l1.581-6h7.562Z" transform="translate(0.213 0.135)" fill="none" stroke="#fff" stroke-linejoin="bevel" stroke-width="1"/><path d="M27.328,16.453H16.6l1.581-6h7.562Z" transform="translate(-4.851 -5.981)" fill="none" stroke="#fff" stroke-linejoin="bevel" stroke-width="1"/><g transform="translate(0 0)"><g clip-path="url(#c)"><path d="M22.035,22.378H11.312l1.581-6h7.562Z" transform="translate(0.145 0.211)" fill="none" stroke="#fff" stroke-linejoin="bevel" stroke-width="1"/><path d="M32.621,22.378H21.9l1.581-6h7.562Z" transform="translate(0.281 0.211)" fill="none" stroke="#fff" stroke-linejoin="bevel" stroke-width="1"/><line x2="5.121" transform="translate(2.464 2.561)" fill="none" stroke="#fff" stroke-linejoin="bevel" stroke-width="1"/><line y1="5.121" transform="translate(5.024 0.001)" fill="none" stroke="#fff" stroke-linejoin="bevel" stroke-width="1"/><line x2="3.853" transform="translate(28.167 6.217)" fill="none" stroke="#fff" stroke-linejoin="bevel" stroke-width="1"/></g></g><line y1="3.853" transform="translate(30.093 4.29)" fill="none" stroke="#fff" stroke-linejoin="bevel" stroke-width="1"/></g></g></g></svg>