<svg xmlns="http://www.w3.org/2000/svg" width="20" height="20" viewBox="0 0 20 20"><path d="M0,0H20V20H0Z" fill="none"/><path d="M2.714,2.575,13.166,1.081a.416.416,0,0,1,.475.412V18.846a.416.416,0,0,1-.474.412L2.713,17.764A.832.832,0,0,1,2,16.94V3.4a.832.832,0,0,1,.714-.824Zm.949,1.547v12.1l8.315,1.19V2.932ZM14.472,16h2.495V4.343H14.472V2.678H17.8a.832.832,0,0,1,.832.832V16.829a.832.832,0,0,1-.832.832H14.472ZM8.818,10.17l2.328,3.33h-2L7.82,11.6,6.49,13.5h-2l2.328-3.33L4.494,6.84h2l1.33,1.9,1.33-1.9h2Z" transform="translate(-0.315 -0.17)" fill="#012a50"/></svg>