<svg xmlns="http://www.w3.org/2000/svg" width="28" height="28" viewBox="0 0 28 28"><g transform="translate(-395 -261)"><circle cx="14" cy="14" r="14" transform="translate(395 261)" fill="#fff"/><g transform="translate(399.957 265.957)"><path d="M0,0H18.086V18.086H0Z" fill="none"/><path d="M7.238,3h4.49l1.5,1.489h2.993a.747.747,0,0,1,.748.745V15.661a.747.747,0,0,1-.748.745H2.748A.747.747,0,0,1,2,15.661V5.234a.747.747,0,0,1,.748-.745H5.741ZM9.483,14.916a4.469,4.469,0,1,0-4.49-4.468A4.479,4.479,0,0,0,9.483,14.916Zm0-1.489a2.979,2.979,0,1,1,2.993-2.979A2.986,2.986,0,0,1,9.483,13.426Z" transform="translate(-0.44 -0.66)" fill="#333d4b"/></g></g></svg>