<svg xmlns="http://www.w3.org/2000/svg" xmlns:xlink="http://www.w3.org/1999/xlink" width="52" height="52" viewBox="0 0 52 52"><defs><clipPath id="a"><rect width="36" height="36" transform="translate(-0.185 -0.185)" fill="none" stroke="#707070" stroke-linecap="round" stroke-width="1"/></clipPath></defs><g transform="translate(-658 -386)"><circle cx="26" cy="26" r="26" transform="translate(658 386)" fill="#ffa18b"/><g transform="translate(87.801 11.801)"><path d="M0,0H26.266V4.5a5.018,5.018,0,0,1-4.887,5.14H4.887A5.018,5.018,0,0,1,0,4.5Z" transform="translate(583.065 404.336)" fill="none"/><g transform="translate(578.383 382.383)" clip-path="url(#a)"><g transform="translate(4.319 4.082)"><g transform="translate(0 0)"><path d="M673.2,564.266a4.6,4.6,0,0,0-4.6-4.6h-17.78a4.6,4.6,0,0,0-4.6,4.6v13.543H673.2Z" transform="translate(-646.226 -559.667)" fill="none" stroke="#fff" stroke-linecap="round" stroke-linejoin="round" stroke-width="1"/><path d="M646.226,610.227v4.711a4.6,4.6,0,0,0,4.6,4.6H668.6a4.6,4.6,0,0,0,4.6-4.6v-4.711Z" transform="translate(-646.226 -592.086)" fill="none" stroke="#fff" stroke-linecap="round" stroke-miterlimit="10" stroke-width="1"/><g transform="translate(2.397 7.945)"><path d="M660.569,583.835l-.774,3.409c-.014.073-.035.117-.065.131a.518.518,0,0,1-.176.02h-.875a.336.336,0,0,1-.166-.026.21.21,0,0,1-.055-.125l-.734-3.409h-.644l-.724,3.409a.21.21,0,0,1-.055.125.335.335,0,0,1-.166.026h-.885a.369.369,0,0,1-.176-.026.209.209,0,0,1-.055-.125l-.784-3.409h-1.126a.258.258,0,0,1-.161-.035.234.234,0,0,1-.04-.166v-.764a.235.235,0,0,1,.04-.167.261.261,0,0,1,.161-.035h.865l-.523-2.393a.289.289,0,0,1,.005-.2c.023-.034.1-.051.216-.051h.8a.567.567,0,0,1,.151.015c.033.01.057.056.07.136l.533,2.494h.965l.5-2.494c.013-.073.037-.117.07-.13a.468.468,0,0,1,.161-.02h.935a.469.469,0,0,1,.161.02c.034.014.057.057.07.13l.523,2.494h.985l.523-2.494c.013-.073.033-.117.06-.13a.419.419,0,0,1,.161-.02h.814c.107,0,.169.015.186.045a.382.382,0,0,1,0,.206l-.493,2.393h.824c.094,0,.152.014.176.04a.259.259,0,0,1,.035.161v.764a.257.257,0,0,1-.035.161c-.023.027-.082.041-.176.041Zm-4.836,1.5.251-1.5h-.5Zm1.549-2.664h.271l-.141-.834Zm1.83,2.675.251-1.508h-.513Z" transform="translate(-652.907 -580.024)" fill="#fff"/></g><g transform="translate(3.203 4.939)"><line x2="20.91" transform="translate(0 0)" fill="none" stroke="#fff" stroke-linecap="round" stroke-miterlimit="10" stroke-width="1"/><line x2="11.645" transform="translate(9.265 4.195)" fill="none" stroke="#fff" stroke-linecap="round" stroke-miterlimit="10" stroke-width="1"/><line x2="11.645" transform="translate(9.265 8.389)" fill="none" stroke="#fff" stroke-linecap="round" stroke-miterlimit="10" stroke-width="1"/></g></g></g></g></g></g></svg>