<svg xmlns="http://www.w3.org/2000/svg" xmlns:xlink="http://www.w3.org/1999/xlink" width="52" height="52" viewBox="0 0 52 52"><defs><clipPath id="a"><rect width="36" height="36" transform="translate(1252 323)" fill="#fff" stroke="#707070" stroke-width="1"/></clipPath><clipPath id="b"><rect width="10.13" height="10.13" fill="none"/></clipPath></defs><g transform="translate(-1194 -400)"><circle cx="26" cy="26" r="26" transform="translate(1194 400)" fill="#97bafd"/><g transform="translate(-50 85)" clip-path="url(#a)"><g transform="translate(1253.493 324.542)"><path d="M38.566,71.912l6.821-6.821-.163-.163a3.178,3.178,0,0,0-4.495,0l-3.32,3.32c-.109,0-4.705,0-4.705,0l-5.383-4.617H24.052l-1.813.885-6.666,6.666,4.661,4.661,3.931-3.931Z" transform="translate(-11.566 -47.434)" fill="none" stroke="#fff" stroke-width="1"/><path d="M38.566,71.912l6.821-6.821-.163-.163a3.178,3.178,0,0,0-4.495,0l-3.32,3.32c-.109,0-4.705,0-4.705,0l-5.383-4.617H24.052l-1.813.885-6.666,6.666,4.661,4.661,3.931-3.931Z" transform="translate(-11.566 -47.434)" fill="none" stroke="#fff" stroke-linecap="round" stroke-linejoin="round" stroke-width="1"/><rect width="3.411" height="9.793" transform="translate(3.522 21.835) rotate(-45)" fill="none" stroke="#fff" stroke-width="1"/><path d="M0,0H3.411V9.793H0Z" transform="translate(3.522 21.835) rotate(-45)" fill="#97bafd" stroke="#fff" stroke-linecap="round" stroke-width="1"/><rect width="4.458" height="10.84" transform="translate(0 24.614) rotate(-45)" fill="none" stroke="#fff" stroke-width="1"/><path d="M0,0H4.458V10.84H0Z" transform="translate(0 24.614) rotate(-45)" fill="#97bafd" stroke="#fff" stroke-linecap="round" stroke-width="1"/><g transform="translate(0.687 22.151)" style="mix-blend-mode:darken;isolation:isolate"><g clip-path="url(#b)"><rect width="4.458" height="9.868" transform="translate(0 3.152) rotate(-45)" fill="none"/></g></g><path d="M11.181,93.5a.794.794,0,1,1,1.123,0,.794.794,0,0,1-1.123,0" transform="translate(-8.235 -67.974)" fill="none" stroke="#fff" stroke-width="1"/><path d="M10.952,92.173a.014.014,0,1,1,.02,0A.014.014,0,0,1,10.952,92.173Z" transform="translate(-7.456 -67.193)" fill="none" stroke="#fff" stroke-linecap="round" stroke-linejoin="round" stroke-width="1"/><path d="M50.929,68.376h9.959v-.069a2.75,2.75,0,0,0-2.75-2.75H54.294l-3.365-1.926H45.878" transform="translate(-33.394 -47.434)" fill="none" stroke="#fff" stroke-width="1"/><path d="M50.929,68.376h9.959v-.069a2.75,2.75,0,0,0-2.75-2.75H54.294l-3.365-1.926H45.878" transform="translate(-33.394 -47.434)" fill="#97bafd" stroke="#fff" stroke-linecap="round" stroke-linejoin="round" stroke-width="1"/><path d="M79.938,11.158A6.428,6.428,0,1,1,73.51,4.729,6.429,6.429,0,0,1,79.938,11.158Z" transform="translate(-55.665 -4.728)" fill="none" stroke="#fff" stroke-linecap="round" stroke-linejoin="round" stroke-width="1"/><path d="M80.2,18.28a1.633,1.633,0,1,0,1.633-1.633,1.633,1.633,0,1,1,1.633-1.633" transform="translate(-63.991 -10.22)" fill="none" stroke="#fff" stroke-width="1"/><line y1="0.987" transform="translate(17.844 2.175)" fill="none" stroke="#fff" stroke-linecap="round" stroke-linejoin="round" stroke-width="1"/><line y2="0.987" transform="translate(17.844 9.693)" fill="none" stroke="#fff" stroke-linecap="round" stroke-linejoin="round" stroke-width="1"/></g></g></g></svg>