<svg xmlns="http://www.w3.org/2000/svg" xmlns:xlink="http://www.w3.org/1999/xlink" width="52" height="52" viewBox="0 0 52 52"><defs><clipPath id="a"><rect width="36" height="36" transform="translate(1449.396 385.396)" fill="#fff"/></clipPath><clipPath id="b"><rect width="31.784" height="31.784" fill="none" stroke="#707070" stroke-linecap="round" stroke-width="1"/></clipPath></defs><g transform="translate(-1462 -386)"><circle cx="26" cy="26" r="26" transform="translate(1462 386)" fill="#8b95a1"/><g transform="translate(20.604 8.604)" clip-path="url(#a)"><g transform="translate(1449.519 387.765)"><g transform="translate(0 1.098)"><path d="M0,0H24.849V4.045a4.623,4.623,0,0,1-4.623,4.623H4.623A4.623,4.623,0,0,1,0,4.045Z" transform="translate(3.467 20.226)" fill="#8b95a1"/><g clip-path="url(#b)"><g transform="translate(3.287 3.065)"><g transform="translate(0 0)"><path d="M671.422,563.962a4.3,4.3,0,0,0-4.3-4.295H650.521a4.3,4.3,0,0,0-4.295,4.295V576.61h25.2Z" transform="translate(-646.226 -559.667)" fill="#8b95a1" stroke="#fff" stroke-linecap="round" stroke-linejoin="round" stroke-width="1"/><path d="M646.226,610.227v4.4a4.3,4.3,0,0,0,4.295,4.3h16.606a4.3,4.3,0,0,0,4.3-4.3v-4.4Z" transform="translate(-646.226 -593.284)" fill="none" stroke="#fff" stroke-linecap="round" stroke-miterlimit="10" stroke-width="1"/><g transform="translate(2.239 6.147)"><path d="M660.063,583.583l-.723,3.184c-.013.068-.033.109-.061.122a.482.482,0,0,1-.164.019H658.3a.315.315,0,0,1-.155-.024.2.2,0,0,1-.052-.117l-.685-3.184h-.6l-.676,3.184a.2.2,0,0,1-.052.117.313.313,0,0,1-.155.024h-.826a.346.346,0,0,1-.165-.024.2.2,0,0,1-.051-.117l-.733-3.184h-1.052a.242.242,0,0,1-.15-.033.218.218,0,0,1-.037-.155v-.713a.219.219,0,0,1,.037-.156.245.245,0,0,1,.15-.032h.807l-.488-2.235a.267.267,0,0,1,0-.188c.022-.032.089-.047.2-.047h.751a.531.531,0,0,1,.141.014q.047.014.065.127l.5,2.329h.9l.47-2.329c.012-.069.034-.109.066-.122a.437.437,0,0,1,.15-.019h.873a.437.437,0,0,1,.15.019q.047.019.066.122l.488,2.329h.92l.489-2.329c.012-.069.031-.109.056-.122a.392.392,0,0,1,.151-.019h.76c.1,0,.158.014.174.042a.356.356,0,0,1,0,.193l-.46,2.235h.77c.088,0,.142.013.164.038a.241.241,0,0,1,.033.151v.713a.239.239,0,0,1-.033.15c-.022.025-.077.038-.164.038Zm-4.517,1.4.235-1.4h-.469Zm1.446-2.488h.253l-.132-.779Zm1.709,2.5.234-1.409h-.479Z" transform="translate(-652.907 -580.024)" fill="#fff"/></g><g transform="translate(2.991 4.613)"><line x2="19.53" transform="translate(0 0)" fill="none" stroke="#fff" stroke-linecap="round" stroke-miterlimit="10" stroke-width="1"/><line x2="10.876" transform="translate(8.654 3.918)" fill="none" stroke="#fff" stroke-linecap="round" stroke-miterlimit="10" stroke-width="1"/><line x2="10.876" transform="translate(8.654 7.835)" fill="none" stroke="#fff" stroke-linecap="round" stroke-miterlimit="10" stroke-width="1"/></g></g></g></g></g><circle cx="6.935" cy="6.935" r="6.935" transform="translate(20.226 2.254)" fill="#8b95a1"/><g transform="translate(19.721 0)"><path d="M35.153,18.528a7.44,7.44,0,1,1,7.44-7.44,7.448,7.448,0,0,1-7.44,7.44m0-13.7a6.26,6.26,0,1,0,6.26,6.26,6.267,6.267,0,0,0-6.26-6.26" transform="translate(-27.713 -1.926)" fill="#fff"/><rect width="4.679" height="1.18" transform="translate(5.1)" fill="#fff"/><rect width="1.18" height="2.012" transform="translate(6.849 2.312)" fill="#fff"/><rect width="2.012" height="1.18" transform="translate(0.589 8.572)" fill="#fff"/><rect width="1.18" height="2.012" transform="translate(6.849 14)" fill="#fff"/><rect width="2.012" height="1.18" transform="translate(12.278 8.572)" fill="#fff"/><path d="M44.437,17.013l-2.21-1.387v-4h1.18v3.348l1.657,1.04Z" transform="translate(-35.377 -6.139)" fill="#fff"/></g></g></g></g></svg>