<svg xmlns="http://www.w3.org/2000/svg" width="16" height="16" viewBox="0 0 16 16"><g transform="translate(-436 -113)"><g transform="translate(436 113)"><path d="M0,0H16V16H0Z" fill="none"/><path d="M16.995,3.561H6.11a1.561,1.561,0,0,0,0,3.123H16.995V16.832a.779.779,0,0,1-.777.781H6.11A3.116,3.116,0,0,1,3,14.49V5.123A3.116,3.116,0,0,1,6.11,2H16.217a.779.779,0,0,1,.777.781ZM4.555,14.49A1.558,1.558,0,0,0,6.11,16.051h9.33V8.245H6.11a3.086,3.086,0,0,1-1.555-.418ZM16.217,5.9H6.11a.781.781,0,0,1,0-1.561H16.217Z" transform="translate(-1.997 -1.806)" fill="#333d4b"/></g><rect width="12" height="9" transform="translate(438 119)" fill="#333d4b"/><path d="M11,9.4h1.5V13H11ZM11,7h1.5V8.2H11Z" transform="translate(432.398 113)" fill="#fff"/></g></svg>