<svg xmlns="http://www.w3.org/2000/svg" width="16" height="16" viewBox="0 0 16 16"><g transform="translate(0 -0.07)"><rect width="16" height="16" transform="translate(0 0.07)" fill="none"/><g transform="translate(0.07 0.134)"><path d="M7.575,8.372a.8.8,0,1,0-.8.8A.8.8,0,0,0,7.575,8.372Zm5.575-.8H9.168V5.982h3.982ZM2,6.381v5.551l2.246.749,1.338,4.452H9.965V15.54h1.593v1.593h4.381s1.991-6.738,1.991-9.159a4.378,4.378,0,0,0-4.381-4.381H9.566A3.978,3.978,0,0,0,6.381,2,1.193,1.193,0,0,0,5.186,3.195a1.116,1.116,0,0,0,.1.462,3.85,3.85,0,0,1,.255.916L3.728,6.381ZM3.593,7.974h.8L7.177,5.186A5.745,5.745,0,0,0,6.97,3.665,2.4,2.4,0,0,1,8.635,5.186h4.914a2.791,2.791,0,0,1,2.788,2.788,43.52,43.52,0,0,1-1.6,7.566H13.151V13.947H8.372V15.54h-1.6l-1.235-4.1-1.943-.653Z" transform="translate(-2 -2)" fill="#333d4b"/></g></g></svg>