<svg xmlns="http://www.w3.org/2000/svg" width="16.001" height="16" viewBox="0 0 16.001 16"><g transform="translate(0.001)"><path d="M0,0H16V16H0Z" fill="none"/><path d="M2,14.754H7.377V16.29H2ZM2,9.377H8.913v1.536H2ZM2,4H17.362V5.536H2Zm14.344,6.932.888-.3L18,11.962l-.7.618a3.086,3.086,0,0,1,0,1.274l.7.618-.768,1.33-.888-.3a3.061,3.061,0,0,1-1.1.638l-.184.918H13.522l-.184-.919a3.069,3.069,0,0,1-1.1-.638l-.888.3-.768-1.33.7-.618a3.086,3.086,0,0,1,0-1.274l-.7-.618.768-1.33.888.3a3.061,3.061,0,0,1,1.1-.638l.184-.918h1.536l.184.919a3.053,3.053,0,0,1,1.1.638ZM14.29,14.754a1.536,1.536,0,1,0-1.536-1.536A1.536,1.536,0,0,0,14.29,14.754Z" transform="translate(-2.001 -2.53)" fill="#333d4b"/></g></svg>