<svg xmlns="http://www.w3.org/2000/svg" width="16" height="16" viewBox="0 0 16 16"><path d="M0,0H16V16H0Z" fill="none"/><path d="M3.143,14a8.02,8.02,0,0,1-.781-1.86,2.4,2.4,0,0,0,0-4.277,7.993,7.993,0,0,1,2-3.469,2.4,2.4,0,0,0,3.7-2.139,7.965,7.965,0,0,1,4,0,2.4,2.4,0,0,0,3.7,2.137,8.064,8.064,0,0,1,2,3.468,2.4,2.4,0,0,0,0,4.277,7.993,7.993,0,0,1-2,3.469,2.4,2.4,0,0,0-3.7,2.139,7.965,7.965,0,0,1-4,0,2.4,2.4,0,0,0-3.7-2.137A8.011,8.011,0,0,1,3.143,14Zm4.52.157a3.992,3.992,0,0,1,1.8,2.216,6.367,6.367,0,0,0,1.2,0A3.995,3.995,0,0,1,15.269,13.7a6.348,6.348,0,0,0,.6-1.038,4.006,4.006,0,0,1,0-5.333,6.5,6.5,0,0,0-.6-1.038,3.991,3.991,0,0,1-4.61-2.667,6.367,6.367,0,0,0-1.2,0A3.995,3.995,0,0,1,4.848,6.293a6.393,6.393,0,0,0-.6,1.038,4.006,4.006,0,0,1,0,5.333,6.5,6.5,0,0,0,.6,1.038A3.982,3.982,0,0,1,7.663,14.154Zm2.4-1.756a2.4,2.4,0,1,1,2.4-2.4A2.4,2.4,0,0,1,10.058,12.4Zm0-1.6a.8.8,0,1,0-.8-.8A.8.8,0,0,0,10.058,10.8Z" transform="translate(-2.058 -1.998)" fill="#426dc1"/></svg>