<svg xmlns="http://www.w3.org/2000/svg" width="16" height="16" viewBox="0 0 16 16"><path d="M0,0H16V16H0Z" fill="none"/><path d="M6.879,1V2.394h4.182V1h1.394V2.394h2.788a.7.7,0,0,1,.7.7V14.244a.7.7,0,0,1-.7.7H2.7a.7.7,0,0,1-.7-.7V3.091a.7.7,0,0,1,.7-.7H5.485V1Zm7.668,6.274H3.394v6.274H14.547Zm-3.46.792.986.986L8.622,12.5,6.157,10.037l.987-.986L8.623,10.53l2.465-2.465Zm-5.6-4.277H3.394V5.879H14.547V3.788H12.456v.7H11.062v-.7H6.879v.7H5.485Z" transform="translate(-0.971 0.029)" fill="#426dc1"/></svg>