<svg xmlns="http://www.w3.org/2000/svg" width="16" height="16" viewBox="0 0 16 16"><path d="M0,0H16V16H0Z" fill="none"/><path d="M11.08,5.682A1.859,1.859,0,1,1,9.222,7.54,1.858,1.858,0,0,1,11.08,5.682m0,7.965c2.629,0,5.4,1.292,5.4,1.859v.974H5.682v-.974c0-.566,2.77-1.859,5.4-1.859M11.08,4a3.54,3.54,0,1,0,3.54,3.54A3.539,3.539,0,0,0,11.08,4Zm0,7.965c-2.363,0-7.08,1.186-7.08,3.54v2.655H18.161V15.506C18.161,13.151,13.443,11.965,11.08,11.965Z" transform="translate(-3.08 -3.08)" fill="#333d4b"/></svg>