<svg xmlns="http://www.w3.org/2000/svg" xmlns:xlink="http://www.w3.org/1999/xlink" width="35" height="35" viewBox="0 0 35 35"><defs><clipPath id="a"><rect width="35" height="35" transform="translate(-13141.96 10520)" fill="#fff" stroke="#707070" stroke-width="1"/></clipPath><clipPath id="b"><rect width="37" height="37" transform="translate(0.207 0.206)" fill="#fff" stroke="#707070" stroke-width="1"/></clipPath></defs><g transform="translate(13141.96 -10520)" clip-path="url(#a)"><g transform="translate(-13143.167 10518.793)" clip-path="url(#b)"><g transform="translate(-1.121 -1.452)"><circle cx="16.61" cy="16.61" r="16.61" transform="translate(0 32.379) rotate(-77.083)" fill="#d1d6da"/><g transform="translate(6.341 8.117)"><ellipse cx="6.461" cy="8.949" rx="6.461" ry="8.949" transform="translate(7.1 0.712)" fill="#fff"/><path d="M349.865,125.31c-5.408,0-10.243,1.3-13.459,3.332a16.6,16.6,0,0,0,27.058.09C360.25,126.644,355.353,125.31,349.865,125.31Z" transform="translate(-336.406 -107.272)" fill="#fff"/><rect width="6.905" height="10.548" rx="3.452" transform="translate(10.109 11.786)" fill="#fff"/><path d="M361.746,87.6c.193,1.435-.125,2.679-.712,2.779s-1.219-.982-1.412-2.417.125-2.679.711-2.779S361.553,86.17,361.746,87.6Z" transform="translate(-353.626 -77.435)" fill="#fff"/><path d="M410.333,87.6c-.193,1.435.125,2.679.711,2.779s1.219-.982,1.412-2.417-.125-2.679-.711-2.779S410.526,86.17,410.333,87.6Z" transform="translate(-391.331 -77.435)" fill="#fff"/><path d="M362.836,64.288q-.326-2.149-.652-4.3a3.061,3.061,0,0,1,.035-1.559,1.052,1.052,0,0,1,1.24-.7c-.2-1,.905-1.732,1.866-2.063a11.149,11.149,0,0,1,5.024-.618,7.265,7.265,0,0,1,4.475,2.231,3.979,3.979,0,0,1,.842,1.367,5.9,5.9,0,0,1-.093,3.07l-.508,2.419a1.08,1.08,0,0,1-.207.517,1.1,1.1,0,0,1-.838.241l-9.612.021c-.6,0-1.389-.147-1.468-.744" transform="translate(-355.51 -54.979)" fill="#fff"/></g></g></g></g></svg>